# Blender 4.0.2
# www.blender.org
mtllib stair.mtl
o Cube
v 1.000000 1.000000 -1.000000
v 1.000000 -1.000000 -1.000000
v 1.000000 1.000000 1.000000
v 1.000000 -1.000000 1.000000
v -1.000000 1.000000 -1.000000
v -1.000000 -1.000000 -1.000000
v -1.000000 1.000000 1.000000
v -1.000000 -1.000000 1.000000
v 3.000000 1.000000 -1.000000
v 3.000000 -1.000000 -1.000000
v 3.000000 1.000000 1.000000
v 3.000000 -1.000000 1.000000
v 5.000000 1.000000 -1.000000
v 5.000000 -1.000000 -1.000000
v 5.000000 1.000000 1.000000
v 5.000000 -1.000000 1.000000
v 1.000000 3.000000 1.000000
v -1.000000 3.000000 1.000000
v 1.000000 3.000000 -1.000000
v -1.000000 3.000000 -1.000000
v 1.000000 3.000000 -1.000000
v 1.000000 3.000000 1.000000
v 3.000000 3.000000 -1.000000
v 3.000000 3.000000 1.000000
v 3.000000 1.000000 -1.000000
v 3.000000 1.000000 1.000000
v 5.000000 1.000000 -1.000000
v 5.000000 1.000000 1.000000
v 3.000000 3.000000 -1.000000
v 3.000000 3.000000 1.000000
v 5.000000 3.000000 -1.000000
v 5.000000 3.000000 1.000000
v 3.000000 1.000000 -3.000000
v 3.000000 -1.000000 -3.000000
v 5.000000 1.000000 -3.000000
v 5.000000 -1.000000 -3.000000
v 5.000000 1.000000 -3.000000
v 3.000000 1.000000 -3.000000
v 5.000000 3.000000 -3.000000
v 3.000000 3.000000 -3.000000
v 3.000000 5.000000 -1.000000
v 3.000000 5.000000 1.000000
v 5.000000 5.000000 -1.000000
v 5.000000 5.000000 1.000000
v 1.000000 -1.000000 -3.000000
v -1.000000 -1.000000 -3.000000
v 1.000000 1.000000 -3.000000
v -1.000000 1.000000 -3.000000
v 3.000000 1.000000 -3.000000
v 3.000000 -1.000000 -3.000000
vn -0.0000 -0.0000 -1.0000
vn -0.0000 -0.0000 1.0000
vn -1.0000 -0.0000 -0.0000
vn -0.0000 -1.0000 -0.0000
vn 1.0000 -0.0000 -0.0000
vn -0.0000 1.0000 -0.0000
vt 0.625000 0.500000
vt 0.625000 0.250000
vt 0.375000 0.750000
vt 0.625000 0.750000
vt 0.625000 1.000000
vt 0.375000 1.000000
vt 0.375000 0.000000
vt 0.625000 0.000000
vt 0.375000 0.250000
vt 0.125000 0.500000
vt 0.375000 0.500000
vt 0.125000 0.750000
vt 0.875000 0.500000
vt 0.875000 0.750000
s 0
usemtl Material
f 4/3/2 3/4/2 7/5/2 8/6/2
f 6/10/4 2/11/4 4/3/4 8/12/4
f 9/1/5 10/11/5 50/11/5 49/1/5
f 12/3/4 10/11/4 14/11/4 16/3/4
f 2/11/4 6/10/4 46/10/4 45/11/4
f 4/3/4 2/11/4 10/11/4 12/3/4
f 3/4/2 11/4/2 24/4/2 22/4/2
f 11/4/2 12/3/2 16/3/2 15/4/2
f 11/4/6 15/4/6 28/4/6 26/4/6
f 14/11/4 10/11/4 34/11/4 36/11/4
f 19/1/6 20/13/6 18/14/6 17/4/6
f 5/2/3 7/8/3 18/8/3 20/2/3
f 3/4/5 1/1/5 19/1/5 17/4/5
f 1/1/3 3/4/3 22/4/3 21/1/3
f 9/1/1 1/1/1 21/1/1 23/1/1
f 11/4/5 9/1/5 23/1/5 24/4/5
f 15/4/6 13/1/6 27/1/6 28/4/6
f 13/1/6 9/1/6 25/1/6 27/1/6
f 9/1/6 11/4/6 26/4/6 25/1/6
f 30/4/2 32/4/2 44/4/2 42/4/2
f 25/1/3 26/4/3 30/4/3 29/1/3
f 28/4/5 27/1/5 31/1/5 32/4/5
f 13/1/5 14/11/5 36/11/5 35/1/5
f 9/1/6 13/1/6 35/1/6 33/1/6
f 10/11/3 9/1/3 33/1/3 34/11/3
f 37/1/1 38/1/1 40/1/1 39/1/1
f 29/1/6 31/1/6 39/1/6 40/1/6
f 27/1/4 25/1/4 38/1/4 37/1/4
f 25/1/3 29/1/3 40/1/3 38/1/3
f 41/1/6 42/4/6 44/4/6 43/1/6
f 29/1/3 30/4/3 42/4/3 41/1/3
f 31/1/1 29/1/1 41/1/1 43/1/1
f 45/11/1 47/1/1 49/1/1 50/11/1
f 5/2/6 1/1/6 47/1/6 48/2/6
f 10/11/4 2/11/4 45/11/4 50/11/4
f 6/9/3 5/2/3 48/2/3 46/9/3
usemtl yellow
f 1/1/1 5/2/1 20/2/1 19/1/1
f 8/7/3 7/8/3 5/2/3 6/9/3
f 3/4/2 4/3/2 12/3/2 11/4/2
f 14/11/5 13/1/5 15/4/5 16/3/5
f 7/5/2 3/4/2 17/4/2 18/5/2
f 21/1/6 22/4/6 24/4/6 23/1/6
f 26/4/2 28/4/2 32/4/2 30/4/2
f 31/1/5 27/1/5 37/1/5 39/1/5
f 34/11/1 33/1/1 35/1/1 36/11/1
f 32/4/5 31/1/5 43/1/5 44/4/5
f 46/9/1 48/2/1 47/1/1 45/11/1
f 1/1/6 9/1/6 49/1/6 47/1/6
